<?xml version="1.0" encoding="UTF-8"?>
<svg width="64px" height="65px" viewBox="0 0 64 65" version="1.1" xmlns="http://www.w3.org/2000/svg" xmlns:xlink="http://www.w3.org/1999/xlink">
    <!-- Generator: Sketch 50.2 (55047) - http://www.bohemiancoding.com/sketch -->
    <title>Bitcoin Gold</title>
    <desc>Created with Sketch.</desc>
    <defs></defs>
    <g id="Page-1" stroke="none" stroke-width="1" fill="none" fill-rule="evenodd">
        <g id="crypto" transform="translate(-805.000000, -87.000000)">
            <g id="Bitcoin-Gold" transform="translate(805.000000, 87.000000)">
                <g id="BTG">
                    <path d="M32.2,64.1 C14.6,64 0.5,49.9 0.6,32.4 C0.6,14.8 14.9,0.7 32.4,0.8 C50,0.9 64.1,15.1 64,32.6 C63.8,50.1 49.6,64.2 32.2,64.1 Z M60.9,32.5 C60.9,16.6 48.1,3.8 32.2,3.8 C16.4,3.8 3.6,16.6 3.6,32.4 C3.6,48.3 16.4,61.1 32.3,61.1 C48.1,61.1 60.9,48.3 60.9,32.5 Z" id="Shape" fill="#031E6B" fill-rule="nonzero"></path>
                    <path d="M58.5972673,32.5026823 C58.3808523,47.1106921 46.586237,58.9053075 32.0864346,58.7971 C17.3702173,58.5806851 5.68380939,46.6778622 5.90022435,32.1780598 C6.11663931,17.57005 17.9112547,5.99184958 32.3028496,6.10005706 C46.9108594,6.20826454 58.5972673,18.0028799 58.5972673,32.5026823 Z M50.7986336,32.4866675 C50.7986336,22.2782748 42.5709739,13.974433 32.2863991,13.898251 C22.1541885,13.822069 13.8503467,21.9735467 13.6979826,32.2581214 C13.5456185,42.4665141 21.7732783,50.846538 32.1340351,50.998902 C42.3424278,51.0750841 50.6462696,42.7712423 50.7986336,32.4866675 Z" id="Combined-Shape" fill="#DB9A1E" fill-rule="nonzero"></path>
                    <path d="M47.7959006,32.4791933 C47.668187,41.0998594 40.7077973,48.0602491 32.1509879,47.9963923 C23.466465,47.8686788 16.5699321,40.8444323 16.6976457,32.2876229 C16.8253593,23.6669568 23.785749,16.8342807 32.2787015,16.8981375 C40.8993677,16.9619942 47.7959006,23.9223839 47.7959006,32.4791933 Z M44.9107919,32.4726148 C44.9107919,25.5030806 39.2935553,19.8338326 32.2720097,19.7818211 C25.3544869,19.7298097 19.6852389,25.2950348 19.581216,32.3165804 C19.4771931,39.2861147 25.0944296,45.0073741 32.1679868,45.111397 C39.137521,45.1634084 44.806769,39.4941605 44.9107919,32.4726148 Z" id="Combined-Shape" fill="#0F2B71" fill-rule="nonzero"></path>
                    <path d="M25.1478836,21.701142 C25.8837985,21.901846 26.6197133,22.0356487 27.3556282,22.2363528 C28.091543,22.4370568 28.8274578,22.5708595 29.5633727,22.7715636 C29.7640767,22.8384649 29.8309781,22.7715636 29.8978794,22.5708595 C30.1654848,21.4335366 30.4330902,20.363115 30.7006956,19.2257921 C30.767597,19.025088 30.8344983,18.9581867 31.0352024,19.025088 C31.7042159,19.2257921 32.306328,19.3595948 32.9753415,19.4933974 C33.1760455,19.5602988 33.1760455,19.6272001 33.1091442,19.7610028 C32.8415388,20.8314244 32.5739334,21.9687474 32.306328,23.039169 C32.306328,23.1060703 32.306328,23.1729716 32.2394266,23.3067743 C32.7746374,23.440577 33.3767496,23.5743797 33.9119604,23.7081824 C33.9788617,23.7081824 34.0457631,23.5743797 34.1126644,23.5074784 C34.3133685,22.6377609 34.5140725,21.8349447 34.7816779,20.9652271 C34.8485793,20.6976217 34.9154806,20.4300163 34.982382,20.1624109 C34.982382,20.0286082 35.0492833,19.9617069 35.183086,20.0286082 C35.8520995,20.2293123 36.521113,20.363115 37.2570278,20.563819 C37.3239292,20.563819 37.3239292,20.6307204 37.3908305,20.6307204 C37.1901265,21.5004379 36.9894224,22.3032541 36.7887184,23.1060703 C36.721817,23.440577 36.6549157,23.7750838 36.521113,24.1095905 C36.4542116,24.3102946 36.521113,24.3771959 36.721817,24.4440973 C37.4577319,24.778604 38.1936467,25.1131108 38.9295616,25.4476175 C39.598575,25.8490256 40.2006872,26.3842364 40.6689966,27.0532499 C41.2711088,28.0567701 41.3380101,29.1271917 41.0704047,30.1976133 C40.8697007,30.9335281 40.6020953,31.6025416 40.0668845,32.1377524 C39.6654764,32.5391605 39.1302656,32.8067659 38.5950548,33.00747 C38.5281535,33.00747 38.4612521,33.0743713 38.3274494,33.0743713 C38.5950548,33.2750754 38.8626602,33.4088781 39.1302656,33.6095821 C39.9330818,34.2116942 40.4682926,34.9476091 40.735898,35.884228 C40.8697007,36.6201428 40.8027993,37.422959 40.6020953,38.1588738 C40.3344899,39.0954927 39.9999831,39.8983089 39.397871,40.6342238 C38.6619562,41.5039413 37.7253373,41.9722507 36.6549157,42.1060534 C35.2499874,42.3067575 33.9119604,42.1729548 32.5739334,41.9722507 C32.3732293,41.9053494 32.2394266,41.9722507 32.1725253,42.1729548 C31.9049199,43.2433764 31.6373145,44.3806993 31.3697091,45.4511209 C31.3028078,45.7187263 31.3028078,45.7856276 30.968301,45.6518249 C30.3661889,45.5180222 29.6971754,45.3173182 29.0950632,45.1835155 C28.8943592,45.1166141 28.8943592,45.0497128 28.9612605,44.9159101 C29.2288659,43.7785872 29.4964713,42.6412642 29.8309781,41.5708426 C29.8309781,41.4370399 29.8978794,41.3701386 29.7640767,41.3032372 C29.2288659,41.1694345 28.6936551,41.0356318 28.091543,40.9018292 C27.9577403,41.5039413 27.7570363,42.1060534 27.6232336,42.7081656 C27.4894309,43.3102777 27.2887268,43.9123899 27.1549241,44.514502 C27.0880228,44.6483047 27.0880228,44.715206 26.8873187,44.6483047 C26.2183052,44.4476007 25.5492917,44.313798 24.8802782,44.1799953 C24.6795742,44.1130939 24.6795742,44.0461926 24.7464755,43.9123899 C25.0140809,42.7750669 25.2816863,41.637744 25.6161931,40.5673224 C25.6161931,40.5004211 25.6830944,40.4335197 25.6830944,40.299717 C24.1443634,39.8983089 22.6056324,39.4969008 21,39.0954927 C21.1338027,38.8278873 21.200704,38.6271833 21.3345067,38.3595779 C21.6021121,37.7574657 21.8697175,37.1553536 22.0704216,36.6201428 C22.1373229,36.4194388 22.2042243,36.4194388 22.4049283,36.4194388 C22.8732378,36.5532415 23.4084486,36.6870442 23.876758,36.7539455 C24.4119688,36.8877482 24.8133769,36.6201428 24.8802782,36.1518334 C25.7499958,32.7398646 26.6197133,29.3278958 27.4225295,25.8490256 C27.5563322,25.3138148 27.2218255,24.7117027 26.6197133,24.5109986 C26.0176012,24.3102946 25.415489,24.1764919 24.8802782,24.0426892 C24.7464755,24.0426892 24.6795742,23.9757878 24.7464755,23.8419851 C24.9471796,23.1060703 25.1478836,22.3032541 25.3485877,21.5673393 C25.0809823,21.7680433 25.0809823,21.7680433 25.1478836,21.701142 Z M28.5598524,38.2257752 C28.6267538,38.2257752 28.6936551,38.2926765 28.6936551,38.2926765 C29.7640767,38.5602819 30.9013997,38.8947887 32.0387226,38.96169 C32.8415388,39.0285914 33.5774536,39.0285914 34.3133685,38.760986 C35.5844941,38.3595779 36.1197049,36.6870442 35.3837901,35.6166226 C35.0492833,35.0814118 34.5140725,34.746905 33.9788617,34.4123983 C32.7746374,33.7433848 31.3697091,33.4757794 30.0316821,33.208174 C29.8309781,33.1412727 29.8309781,33.208174 29.7640767,33.4088781 C29.630274,34.0778915 29.42957,34.6800037 29.2957673,35.3490172 C29.0281619,36.2856361 28.8274578,37.222255 28.5598524,38.2257752 Z M34.1795658,31.4018376 C34.3133685,31.4018376 34.6478752,31.3349362 34.9154806,31.2680349 C36.1866062,31.0004295 36.8556197,29.5285998 36.1866062,28.3912769 C35.8520995,27.7891647 35.2499874,27.3877566 34.6478752,27.1201512 C33.7112563,26.7187431 32.7746374,26.5180391 31.7711172,26.2504337 C31.5704132,26.1835324 31.5035118,26.2504337 31.4366105,26.4511378 C31.1021037,27.8560661 30.767597,29.1940931 30.3661889,30.5990214 C30.2992875,30.7328241 30.3661889,30.7997254 30.4999916,30.8666268 C30.767597,30.9335281 30.968301,31.0004295 31.2359064,31.0673308 C32.2394266,31.2011335 33.1091442,31.4018376 34.1795658,31.4018376 Z" id="Shape" fill="#122C73" fill-rule="nonzero" transform="translate(31.110000, 32.359363) rotate(-15.000000) translate(-31.110000, -32.359363) "></path>
                </g>
            </g>
        </g>
    </g>
</svg>