<?xml version="1.0" encoding="UTF-8"?>
<svg width="64px" height="64px" viewBox="0 0 64 64" version="1.1" xmlns="http://www.w3.org/2000/svg" xmlns:xlink="http://www.w3.org/1999/xlink">
    <!-- Generator: Sketch 50.2 (55047) - http://www.bohemiancoding.com/sketch -->
    <title>Komodo</title>
    <desc>Created with Sketch.</desc>
    <defs>
        <path d="M55.0650925,10.6051101 L53.4366167,8.97635242 C48.4265727,6.87929515 43.4176564,4.77829075 38.4059207,2.68461674 L34.2727048,0.954643172 L33.1280352,0.480422907 L31.9718062,0.0011277533 L30.8152952,0.480422907 L29.6709075,0.954643172 L25.5379736,2.68489868 C20.5262379,4.77857269 15.5170396,6.87957709 10.5072775,8.97663436 L8.87851982,10.6053921 L0,31.9715242 L8.87851982,53.3379383 L10.5072775,54.966696 C17.6608987,57.961163 24.8085991,60.9717004 31.9720881,63.9424846 C39.1355771,60.9717004 46.2829956,57.961163 53.4366167,54.966696 L55.0650925,53.3379383 L63.9436123,31.9715242 L55.0650925,10.6051101 Z M45.3562643,45.3559824 L31.9718062,50.9002996 L18.587348,45.3562643 L13.0433128,31.9718062 L18.587348,18.58763 L31.9718062,13.0430308 L45.3559824,18.587348 L50.9002996,31.9715242 L45.3562643,45.3559824 Z" id="path-1"></path>
    </defs>
    <g id="Page-1" stroke="none" stroke-width="1" fill="none" fill-rule="evenodd">
        <g id="crypto" transform="translate(-1244.000000, -327.000000)">
            <g id="Komodo" transform="translate(1244.000000, 327.000000)">
                <g id="KMD">
                    <g id="Rectangle">
                        <mask id="mask-2" fill="white">
                            <use xlink:href="#path-1"></use>
                        </mask>
                        <use id="Mask" fill="#346767" fill-rule="nonzero" xlink:href="#path-1"></use>
                        <rect fill="#FABB37" mask="url(#mask-2)" transform="translate(31.834524, 3.834524) rotate(-315.000000) translate(-31.834524, -3.834524) " x="11.4454365" y="-16.5545635" width="40.7781746" height="40.7781746"></rect>
                    </g>
                    <polygon id="Shape" fill="#517E7E" fill-rule="nonzero" points="31.9718062 18.587348 22.5077004 22.5077004 18.587348 31.9718062 22.5077004 41.43563 31.9718062 45.3562643 41.4359119 41.43563 45.3562643 31.9718062 41.4359119 22.5077004"></polygon>
                </g>
            </g>
        </g>
    </g>
</svg>