<?xml version="1.0" encoding="utf-8"?>
<!-- Generator: Adobe Illustrator 21.1.0, SVG Export Plug-In . SVG Version: 6.00 Build 0)  -->
<svg version="1.1" id="Layer_1" xmlns="http://www.w3.org/2000/svg" xmlns:xlink="http://www.w3.org/1999/xlink" x="0px" y="0px"
	 viewBox="0 0 200 200" style="enable-background:new 0 0 200 200;" xml:space="preserve">
<style type="text/css">
	.st0{fill:#FFFFFF;}
	.st1{fill:none;}
</style>
<g id="Layer_1_1_">
	<path class="st0" d="M107.3,160.1"/>
	<path class="st0" d="M78.8,160.1c-43,0-77.5-34.5-77.5-76.5c0-42.5,34.5-77,77-77h15v32.2l-30,0.8c-18.5,6-32,23.5-32,44
		c0,25.5,21,46.5,45.9,44.6l29.5-0.1l-0.4-45h30v44.5c18.5-6.5,31.5-23.5,31.5-44c0-25.5-21-46.5-46.5-46.5h-15V6.6h15
		c43,0,77.5,34.5,77.5,77c0,32.5-20.5,60.5-49,71.5c-4,1.5-8.5,3-12.5,3.5l-30,38v-36.5H78.8z"/>
	<line class="st1" x1="91.3" y1="153.1" x2="96.3" y2="128.1"/>
</g>
</svg>
