<?xml version="1.0" encoding="UTF-8"?>
<svg width="64px" height="64px" viewBox="0 0 64 64" version="1.1" xmlns="http://www.w3.org/2000/svg" xmlns:xlink="http://www.w3.org/1999/xlink">
    <!-- Generator: Sketch 50.2 (55047) - http://www.bohemiancoding.com/sketch -->
    <title>RUBIES (RBIES)</title>
    <desc>Created with Sketch.</desc>
    <defs></defs>
    <g id="Page-1" stroke="none" stroke-width="1" fill="none" fill-rule="evenodd">
        <g id="crypto" transform="translate(-1244.000000, -567.000000)" fill="#D9001F">
            <g id="RUBIES-(RBIES)" transform="translate(1244.000000, 567.000000)">
                <g id="RBIES-alt">
                    <path d="M32.0794386,0.221754386 C14.4847719,0.221754386 0.221473684,14.4850526 0.221473684,32.0797193 C0.221473684,49.6741053 14.4847719,63.9374035 32.0794386,63.9374035 C49.6741053,63.9374035 63.9374035,49.6741053 63.9374035,32.0797193 C63.9374035,14.4850526 49.6741053,0.221754386 32.0794386,0.221754386 Z M46.0067368,18.7615439 L47.5505965,17.178386 C47.7035387,17.0326081 47.9444095,17.0339732 48.0956896,17.1814751 C48.2469697,17.328977 48.2544252,17.5697363 48.1125614,17.7263158 L46.5687018,19.309193 C46.4961191,19.3838553 46.3968045,19.4265588 46.2926845,19.4278754 C46.1885645,19.4291921 46.0882018,19.3890136 46.0137544,19.3162105 C45.8589028,19.1648728 45.8557636,18.9167508 46.0067368,18.7615439 Z M36.8617544,13.813614 L37.4714386,11.6544561 C37.5335438,11.4496885 37.748153,11.332333 37.9540623,11.3905414 C38.1599715,11.4487497 38.2813783,11.6610935 38.2270877,11.8680702 L37.6176842,14.0266667 C37.5583297,14.2349826 37.341793,14.3561729 37.133193,14.2978246 C36.9248016,14.23872 36.8034406,14.0222281 36.8617544,13.813614 Z M26.2032281,11.3832982 C26.4117833,11.3245985 26.6285037,11.4457661 26.6877193,11.6541754 L27.2971228,13.8133333 C27.3466861,14.0185252 27.2251681,14.2261896 27.0220018,14.283493 C26.8188355,14.3407963 26.6067154,14.2272349 26.5417544,14.026386 L25.9323509,11.8677895 C25.9040031,11.7676209 25.9166187,11.6602933 25.967421,11.5694282 C26.0182233,11.4785632 26.1030487,11.4116078 26.2032281,11.3832982 Z M16.053614,17.1713684 C16.2089503,17.0201758 16.4573767,17.0233157 16.6088421,17.178386 L18.1527018,18.7615439 C18.2556252,18.8608807 18.2963443,19.0083518 18.2589737,19.146426 C18.2216031,19.2845002 18.1120633,19.3913028 17.9730878,19.4251682 C17.8341124,19.4590337 17.6877186,19.4145967 17.5910175,19.309193 L16.0471579,17.7263158 C15.9742816,17.6519423 15.934003,17.5516219 15.9352143,17.4475022 C15.9364256,17.3433826 15.9790272,17.2440264 16.053614,17.1713684 Z M12.1569123,38.6481404 L10.0370526,39.1713684 C9.82677996,39.2230815 9.61435953,39.0946997 9.56238596,38.8844912 C9.53721992,38.7833843 9.55332594,38.6764187 9.60714891,38.5872053 C9.66097188,38.4979918 9.74808631,38.433866 9.84926316,38.4089825 L11.9691228,37.8860351 C12.1760769,37.8428287 12.3800926,37.9712177 12.4306745,38.1764938 C12.4812563,38.3817699 12.3602476,38.5902478 12.1569123,38.6481404 Z M12.8303158,28.0207719 C12.7661949,28.2275397 12.5469288,28.343511 12.3399298,28.2801404 L10.2206316,27.629193 C10.0831263,27.5910013 9.97719436,27.4811707 9.94399513,27.3423755 C9.91079591,27.2035803 9.95556365,27.057703 10.060904,26.9614236 C10.1662444,26.8651443 10.3155493,26.8336424 10.450807,26.8791579 L12.5701053,27.5298246 C12.7774999,27.5935793 12.8939822,27.8133501 12.8303158,28.0207719 Z M32.0794386,48.4044912 L14.5726316,30.0328421 L21.3804912,24.2576842 L25.1567719,23.0383158 L39.0029474,23.0383158 L42.7792281,24.2576842 L49.586807,30.0328421 L32.0794386,48.4044912 Z M51.3288421,28.0207719 C51.2651757,27.8133501 51.381658,27.5935793 51.5890526,27.5298246 L53.7083509,26.8791579 C53.844406,26.8307006 53.9960797,26.8608358 54.103277,26.9576234 C54.2104743,27.054411 54.255893,27.2022291 54.2215376,27.3425103 C54.1871822,27.4827915 54.0785978,27.5928937 53.938807,27.629193 L51.8192281,28.2801404 C51.7198045,28.310811 51.6122676,28.3007116 51.5202931,28.2520656 C51.4283187,28.2034197 51.3594473,28.1202156 51.3288421,28.0207719 Z M54.5973333,38.8847719 C54.5450947,39.0949195 54.3327011,39.2232093 54.122386,39.1716491 L52.002807,38.6484211 C51.8023401,38.5880936 51.6843582,38.3812047 51.7345157,38.1779545 C51.7846732,37.9747044 51.9853594,37.8464555 52.1908772,37.8863158 L54.3104561,38.4092632 C54.5208787,38.461494 54.6492485,38.6742712 54.5973333,38.8847719 Z" id="Shape" fill-rule="nonzero"></path>
                    <path d="M42.2551579,25.2589474 C42.2389781,25.2460929 42.2207618,25.236036 42.2012632,25.229193 C42.1970526,25.2275088 42.1942456,25.2235789 42.1900351,25.2224561 L38.8648421,24.1493333 C38.864,24.1487719 38.8623158,24.1487719 38.861193,24.1482105 C38.8408668,24.1421242 38.8198099,24.1388193 38.7985965,24.138386 L38.7924211,24.1378246 L25.3667368,24.1378246 L25.36,24.138386 C25.339277,24.1391426 25.3187254,24.1424421 25.298807,24.1482105 L25.2945965,24.1493333 L21.9699649,25.2224561 C21.9663158,25.2235789 21.9637895,25.2261053 21.9598596,25.2280702 C21.9387935,25.2358831 21.91909,25.2469663 21.9014737,25.2609123 C21.8978246,25.2634386 21.8933333,25.264 21.8896842,25.2670877 L16.3618246,29.9564912 L16.3556491,29.9632281 C16.3444233,29.9741338 16.3339214,29.9857609 16.3242105,29.9980351 C16.3191579,30.0047719 16.3152281,30.0120702 16.3107368,30.0193684 C16.3073684,30.0252632 16.3037193,30.0314386 16.3009123,30.037614 C16.2972632,30.0454737 16.2947368,30.0541754 16.2919298,30.0620351 C16.2893975,30.0686445 16.287242,30.0753922 16.2854737,30.0822456 C16.2837895,30.0901053 16.2826667,30.098807 16.2815439,30.1072281 C16.2809825,30.1128421 16.2792982,30.1181754 16.2787368,30.1243509 L16.2792982,30.128 L16.2787368,30.1338947 C16.2787368,30.1423158 16.2801404,30.1484912 16.2807018,30.1546667 C16.2812632,30.1619649 16.2815439,30.1701053 16.2826667,30.1774035 C16.2842804,30.1860724 16.2865321,30.1946102 16.2894035,30.2029474 C16.2912004,30.209484 16.2932606,30.2159454 16.2955789,30.2223158 C16.2989474,30.2307368 16.3028772,30.2383158 16.3070877,30.2461754 C16.3104561,30.2520702 16.3132632,30.2582456 16.317193,30.2644211 C16.3216842,30.2717193 16.3275789,30.2778947 16.333193,30.285193 C16.3368421,30.2896842 16.3396491,30.2944561 16.3438596,30.2986667 L31.9093333,46.6332632 C31.9234627,46.6475506 31.9394128,46.6599143 31.9567719,46.6700351 C31.9578947,46.6711579 31.9584561,46.6731228 31.9604211,46.6736842 C31.9632281,46.6756491 31.9665965,46.6762105 31.9691228,46.6773333 C31.9819794,46.6842743 31.995409,46.6900969 32.0092632,46.6947368 C32.0145965,46.6958596 32.0196491,46.6978246 32.0249825,46.6989474 C32.042746,46.7037784 32.0610339,46.7064179 32.0794386,46.706807 L32.0805614,46.706807 C32.0988388,46.7060214 32.1169897,46.7033881 32.1347368,46.6989474 C32.1403509,46.6978246 32.1451228,46.6958596 32.1504561,46.6947368 C32.1641767,46.6904541 32.1773619,46.684615 32.1897544,46.6773333 C32.1928421,46.6762105 32.1962105,46.6756491 32.1992982,46.6736842 L32.2029474,46.6700351 C32.220217,46.6599074 32.2360734,46.6475432 32.2501053,46.6332632 L47.8158596,30.2986667 C47.8195088,30.2944561 47.8223158,30.2896842 47.8259649,30.285193 C47.8315789,30.2778947 47.8374737,30.272 47.8422456,30.2644211 C47.8464561,30.2585263 47.8487018,30.2523509 47.8520702,30.2461754 C47.8565781,30.238564 47.8604283,30.2305819 47.8635789,30.2223158 C47.866386,30.2155789 47.8677895,30.2088421 47.8700351,30.2029474 C47.8726858,30.1945869 47.8747493,30.1860515 47.8762105,30.1774035 C47.8773333,30.1701053 47.8778947,30.1622456 47.8784561,30.1546667 C47.8790175,30.1487719 47.8801404,30.1425965 47.8801404,30.1364211 L47.8795789,30.1302456 L47.8801404,30.1243509 C47.8795789,30.1181754 47.8781754,30.1125614 47.8773333,30.1072281 C47.8766156,30.0988182 47.8753024,30.0904697 47.8734035,30.0822456 L47.8675088,30.0620351 C47.8644211,30.0541754 47.8618947,30.0463158 47.8582456,30.037614 C47.8551231,30.0316878 47.8519416,30.0257928 47.8487018,30.0199298 C47.8439298,30.0120702 47.84,30.0047719 47.8346667,29.9980351 C47.8303454,29.9923785 47.8258521,29.9868554 47.821193,29.9814737 C47.8155789,29.9755789 47.8099649,29.9694035 47.8035088,29.9632281 L47.797614,29.9564912 L42.2700351,25.2670877 C42.2655439,25.2631579 42.2599298,25.2617544 42.2551579,25.2589474 Z M42.245614,26.1501754 L44.3702456,29.9003509 L41.658386,29.9003509 L42.245614,26.1501754 Z M38.8454737,24.6374737 L41.853193,25.6087018 L41.2120702,29.7027368 L36.8901053,26.3166316 L38.8454737,24.6374737 Z M36.9097544,29.9006316 L32.7157895,29.9006316 L36.3587368,26.7733333 L36.9097544,29.9006316 Z M36.8572632,26.8898246 L40.7000702,29.9006316 L37.3877895,29.9006316 L36.8572632,26.8898246 Z M36.869614,30.3713684 L34.2967018,38.594807 L32.3761404,30.3713684 L36.869614,30.3713684 Z M37.3633684,30.3713684 L40.9075088,30.3713684 L34.8895439,38.2781754 L37.3633684,30.3713684 Z M38.1563509,24.6082807 L36.4777544,26.0496842 L33.2,24.6082807 L38.1563509,24.6082807 Z M36.0814035,26.3898947 L32.0794386,29.8256842 L28.0777544,26.3898947 L32.0794386,24.6301754 L36.0814035,26.3898947 Z M26.7713684,29.9006316 L23.458807,29.9006316 L27.3018947,26.8898246 L26.7713684,29.9006316 Z M27.8007018,26.7727719 L31.4439298,29.9006316 L27.2494035,29.9006316 L27.8007018,26.7727719 Z M26.7957895,30.3713684 L29.269614,38.2781754 L23.2513684,30.3713684 L26.7957895,30.3713684 Z M27.2895439,30.3713684 L31.7830175,30.3713684 L29.8627368,38.594807 L27.2895439,30.3713684 Z M30.9591579,24.6082807 L27.6814035,26.0496842 L26.0025263,24.6082807 L30.9591579,24.6082807 Z M25.3134035,24.6374737 L27.2690526,26.3166316 L22.946807,29.7027368 L22.3056842,25.6087018 L25.3134035,24.6374737 Z M21.9141053,26.1501754 L22.5013333,29.9003509 L19.7889123,29.9003509 L21.9141053,26.1501754 Z M21.184,26.4825263 L19.248,29.9006316 L17.1559298,29.9006316 L21.184,26.4825263 Z M17.0638596,30.3713684 L19.2606316,30.3713684 L24.9709474,38.669193 L17.0638596,30.3713684 Z M19.8329825,30.3713684 L22.6133333,30.3713684 L25.9489123,39.2595088 L19.8329825,30.3713684 Z M27.0487018,40.8494035 L23.5601404,31.554807 L29.682807,39.5983158 L31.5531228,45.5767018 L27.0487018,40.8494035 Z M32.0794386,45.6814035 L30.1392281,39.4798596 L32.0794386,31.1710877 L34.0199298,39.4792982 L32.0794386,45.6814035 Z M32.6060351,45.5767018 L34.4766316,39.5983158 L40.5990175,31.554807 L37.1107368,40.8488421 L32.6060351,45.5767018 Z M41.5461053,30.3713684 L44.3264561,30.3713684 L38.2105263,39.2595088 L41.5461053,30.3713684 Z M39.1884912,38.669193 L44.8982456,30.3713684 L47.0952982,30.3713684 L39.1884912,38.669193 Z M47.0037895,29.9006316 L44.9117193,29.9006316 L42.9754386,26.4825263 L47.0037895,29.9006316 Z" id="Shape" fill-rule="nonzero"></path>
                </g>
            </g>
        </g>
    </g>
</svg>