<?xml version="1.0" encoding="UTF-8"?>
<svg width="64px" height="64px" viewBox="0 0 64 64" version="1.1" xmlns="http://www.w3.org/2000/svg" xmlns:xlink="http://www.w3.org/1999/xlink">
    <!-- Generator: Sketch 50.2 (55047) - http://www.bohemiancoding.com/sketch -->
    <title>Vert coin</title>
    <desc>Created with Sketch.</desc>
    <defs></defs>
    <g id="Page-1" stroke="none" stroke-width="1" fill="none" fill-rule="evenodd">
        <g id="crypto" transform="translate(-945.000000, -87.000000)" fill="#166816">
            <g id="Vert-coin" transform="translate(945.000000, 87.000000)">
                <g id="VTC">
                    <path d="M59.3451982,15.3760705 L33.5943612,51.8298502 C33.5943612,51.8298502 33.0964581,52.5908018 32.086837,52.5908018 C31.07637,52.5908018 30.4174802,51.7858678 30.4174802,51.7858678 L25.974978,45.8942026 L52.7306432,7.62699559 C47.1460088,2.87154185 39.9080881,0 31.9983084,0 C14.3261322,0 0,14.3261322 0,31.9983084 C0,49.6704846 14.3261322,63.9966167 31.9983084,63.9966167 C49.6704846,63.9966167 63.9966167,49.6704846 63.9966167,31.9983084 C63.9966167,25.910978 62.2965286,20.2206167 59.3451982,15.3760705 Z M8.16437004,31.1871718 L10.953304,28.0663965 L13.3066432,31.1871718 L8.16437004,31.1871718 Z M11.7889692,27.131489 L11.853815,27.058467 L24.4589956,27.058467 L31.3574626,36.0460969 L25.1959824,44.8623084 L11.7889692,27.131489 Z" id="Shape" fill-rule="nonzero"></path>
                </g>
            </g>
        </g>
    </g>
</svg>