<?xml version="1.0" encoding="UTF-8"?>
<svg width="64px" height="64px" viewBox="0 0 64 64" version="1.1" xmlns="http://www.w3.org/2000/svg" xmlns:xlink="http://www.w3.org/1999/xlink">
    <!-- Generator: Sketch 50.2 (55047) - http://www.bohemiancoding.com/sketch -->
    <title>WAVES</title>
    <desc>Created with Sketch.</desc>
    <defs></defs>
    <g id="Page-1" stroke="none" stroke-width="1" fill="none" fill-rule="evenodd">
        <g id="crypto" transform="translate(-512.000000, -443.000000)" fill="#5DBDF7">
            <g id="WAVES" transform="translate(512.000000, 443.000000)">
                <g id="Shape">
                    <path d="M31.9613423,0.0451006711 C14.3165638,0.0451006711 0.0124563758,14.3492081 0.0124563758,31.9939866 C0.0124563758,49.6387651 14.3165638,63.9428725 31.9613423,63.9428725 C49.6061208,63.9428725 63.9101208,49.6388725 63.9101208,31.994094 C63.9101208,14.3493154 49.6061208,0.0451006711 31.9613423,0.0451006711 Z M18.9111409,22.5525906 L28.8404832,12.6232483 C30.5590336,10.9050201 33.3717047,10.9050201 35.0905772,12.6232483 L45.0396779,22.5727785 C45.6129933,23.1459866 45.6129933,24.0821477 45.0396779,24.6563221 L42.0481074,27.6478926 L40.0422013,29.5021745 C39.4511584,30.0524943 38.5353114,30.0524943 37.9442685,29.5021745 L33.9336376,25.7924295 C32.8329664,24.7725101 31.1388993,24.7725101 30.0367248,25.7924295 L26.0273826,29.5022819 C25.4358845,30.0526008 24.5197665,30.0526008 23.9282685,29.5022819 L21.9232215,27.6468188 L18.9111409,24.6352752 C18.3381477,24.0620671 18.3381477,23.125906 18.9111409,22.5525906 Z M50.6814497,35.7725638 L35.0892886,51.3655839 C33.3704161,53.0835973 30.5583893,53.0835973 28.8404832,51.3655839 L13.2483221,35.7735302 C10.4249128,32.9503356 12.6013423,32.069906 14.6745772,30.1514094 L16.9204832,28.0736644 C17.5120127,27.5236358 18.4278531,27.5236358 19.0193826,28.0736644 L23.0293691,31.7834094 C24.1312215,32.8033289 25.8249664,32.8033289 26.9271409,31.7834094 L30.9368054,28.0736644 C31.5279515,27.5236067 32.4435922,27.5236067 33.0347383,28.0736644 L37.0454765,31.7834094 C38.1442028,32.8033275 39.8435556,32.8033275 40.9422819,31.7834094 L44.9523758,28.0736644 C45.5475973,27.523651 46.4632483,27.5168859 47.0514899,28.0736644 L49.4973423,30.3914094 C51.4797315,32.2688859 53.3841611,33.0698523 50.6814497,35.7725638 Z" fill-rule="nonzero"></path>
                </g>
            </g>
        </g>
    </g>
</svg>